#Comment line ignore any data following # character 
#Hierarchical Translation and Rotation (.htr) file 
[Header]	
#Header keywords are followed by a single value 
FileType HTR		#Single word string
DataType HTRS		#Translation followed by rotation and scale data
FileVersion 1		#integer
NumSegments 84		#integer
NumFrames 2		#integer
DataFrameRate 30		#integer, data frame rate in this file
EulerRotationOrder ZYX
CalibrationUnits mm
RotationUnits Degrees
GlobalAxisofGravity Y
BoneLengthAxis Y
ScaleFactor 1.00
[SegmentNames&Hierarchy]
#CHILD	PARENT
MASTER GLOBAL
root MASTER
chest root
L_mid_tent01 root
R_mid_tent01 root
spine01 root
Bip01_Neck chest
L_humerus chest
R_humerus chest
weapon_bone chest
Bip01_Head Bip01_Neck
eye_left_bone Bip01_Head
eye_right_bone Bip01_Head
L_forearm L_humerus
L_front_hand L_forearm
L_weapon_bone L_forearm
L_front_hand01_01 L_front_hand
L_front_hand02_01 L_front_hand
L_front_hand03_01 L_front_hand
L_front_hand01_02 L_front_hand01_01
L_front_hand02_02 L_front_hand02_01
L_front_hand03_02 L_front_hand03_01
R_forearm R_humerus
R_front_hand R_forearm
R_weapon_bone R_forearm
R_front_hand01_01 R_front_hand
R_front_hand02_01 R_front_hand
R_front_hand03_01 R_front_hand
R_front_hand01_02 R_front_hand01_01
R_front_hand02_02 R_front_hand02_01
R_front_hand03_02 R_front_hand03_01
null_rope01_connect L_mid_tent01
Rope1_Seg01 null_rope01_connect
Rope1_Seg02 Rope1_Seg01
Rope1_Seg03 Rope1_Seg02
Rope1_Seg04 Rope1_Seg03
Rope1_Seg05 Rope1_Seg04
Rope1_Seg06 Rope1_Seg05
Rope1_Seg07 Rope1_Seg06
Rope1_Seg09 Rope1_Seg07
L_mid_hand01 Rope1_Seg09
L_mid_hand02 Rope1_Seg09
L_mid_hand03 Rope1_Seg09
null_rope02_connect R_mid_tent01
Rope2_Seg01 null_rope02_connect
Rope2_Seg02 Rope2_Seg01
Rope2_Seg03 Rope2_Seg02
Rope2_Seg04 Rope2_Seg03
Rope2_Seg05 Rope2_Seg04
Rope2_Seg06 Rope2_Seg05
Rope2_Seg07 Rope2_Seg06
Rope2_Seg09 Rope2_Seg07
R_mid_hand01 Rope2_Seg09
R_mid_hand02 Rope2_Seg09
R_mid_hand03 Rope2_Seg09
spine02 spine01
spine03 spine02
pelvis spine03
null_rope03_connect pelvis
null_rope04_connect pelvis
Rope3_Seg01 null_rope03_connect
Rope3_Seg02 Rope3_Seg01
Rope3_Seg03 Rope3_Seg02
Rope3_Seg04 Rope3_Seg03
Rope3_Seg05 Rope3_Seg04
Rope3_Seg06 Rope3_Seg05
Rope3_Seg07 Rope3_Seg06
Rope3_Seg08 Rope3_Seg07
Rope3_Seg09 Rope3_Seg08
R_rear_hand01 Rope3_Seg09
R_rear_hand02 Rope3_Seg09
R_rear_hand03 Rope3_Seg09
Rope4_Seg01 null_rope04_connect
Rope4_Seg02 Rope4_Seg01
Rope4_Seg03 Rope4_Seg02
Rope4_Seg04 Rope4_Seg03
Rope4_Seg05 Rope4_Seg04
Rope4_Seg06 Rope4_Seg05
Rope4_Seg07 Rope4_Seg06
Rope4_Seg08 Rope4_Seg07
Rope4_Seg09 Rope4_Seg08
L_rear_hand01 Rope4_Seg09
L_rear_hand02 Rope4_Seg09
L_rear_hand03 Rope4_Seg09
[BasePosition]
#SegmentName Tx, Ty, Tz, Rx, Ry, Rz, BoneLength
MASTER 0.000000 0.000000 0.000000 -90.000000 0.000000 0.000000 10.000000 
root 0.000000 0.000000 0.000000 0.000000 0.000000 0.000000 10.000000 
chest 0.000000 0.000000 0.000000 0.000000 0.000000 0.000000 10.000000 
L_mid_tent01 0.000000 0.000000 0.000000 0.000000 0.000000 0.000000 10.000000 
R_mid_tent01 0.000000 0.000000 0.000000 0.000000 0.000000 0.000000 10.000000 
spine01 0.000000 0.000000 0.000000 0.000000 0.000000 0.000000 10.000000 
Bip01_Neck 0.000000 0.000000 0.000000 0.000000 0.000000 0.000000 10.000000 
L_humerus 0.000000 0.000000 0.000000 0.000000 0.000000 0.000000 10.000000 
R_humerus 0.000000 0.000000 0.000000 0.000000 0.000000 0.000000 10.000000 
weapon_bone 0.000000 0.000000 0.000000 0.000000 0.000000 0.000000 10.000000 
Bip01_Head 0.000000 0.000000 0.000000 0.000000 0.000000 0.000000 10.000000 
eye_left_bone 0.000000 0.000000 0.000000 0.000000 0.000000 0.000000 10.000000 
eye_right_bone 0.000000 0.000000 0.000000 0.000000 0.000000 0.000000 10.000000 
L_forearm 0.000000 0.000000 0.000000 0.000000 0.000000 0.000000 10.000000 
L_front_hand 0.000000 0.000000 0.000000 0.000000 0.000000 0.000000 10.000000 
L_weapon_bone 0.000000 0.000000 0.000000 0.000000 0.000000 0.000000 10.000000 
L_front_hand01_01 0.000000 0.000000 0.000000 0.000000 0.000000 0.000000 10.000000 
L_front_hand02_01 0.000000 0.000000 0.000000 0.000000 0.000000 0.000000 10.000000 
L_front_hand03_01 0.000000 0.000000 0.000000 0.000000 0.000000 0.000000 10.000000 
L_front_hand01_02 0.000000 0.000000 0.000000 0.000000 0.000000 0.000000 10.000000 
L_front_hand02_02 0.000000 0.000000 0.000000 0.000000 0.000000 0.000000 10.000000 
L_front_hand03_02 0.000000 0.000000 0.000000 0.000000 0.000000 0.000000 10.000000 
R_forearm 0.000000 0.000000 0.000000 0.000000 0.000000 0.000000 10.000000 
R_front_hand 0.000000 0.000000 0.000000 0.000000 0.000000 0.000000 10.000000 
R_weapon_bone 0.000000 0.000000 0.000000 0.000000 0.000000 0.000000 10.000000 
R_front_hand01_01 0.000000 0.000000 0.000000 0.000000 0.000000 0.000000 10.000000 
R_front_hand02_01 0.000000 0.000000 0.000000 0.000000 0.000000 0.000000 10.000000 
R_front_hand03_01 0.000000 0.000000 0.000000 0.000000 0.000000 0.000000 10.000000 
R_front_hand01_02 0.000000 0.000000 0.000000 0.000000 0.000000 0.000000 10.000000 
R_front_hand02_02 0.000000 0.000000 0.000000 0.000000 0.000000 0.000000 10.000000 
R_front_hand03_02 0.000000 0.000000 0.000000 0.000000 0.000000 0.000000 10.000000 
null_rope01_connect 0.000000 0.000000 0.000000 0.000000 0.000000 0.000000 10.000000 
Rope1_Seg01 0.000000 0.000000 0.000000 0.000000 0.000000 0.000000 10.000000 
Rope1_Seg02 0.000000 0.000000 0.000000 0.000000 0.000000 0.000000 10.000000 
Rope1_Seg03 0.000000 0.000000 0.000000 0.000000 0.000000 0.000000 10.000000 
Rope1_Seg04 0.000000 0.000000 0.000000 0.000000 0.000000 0.000000 10.000000 
Rope1_Seg05 0.000000 0.000000 0.000000 0.000000 0.000000 0.000000 10.000000 
Rope1_Seg06 0.000000 0.000000 0.000000 0.000000 0.000000 0.000000 10.000000 
Rope1_Seg07 0.000000 0.000000 0.000000 0.000000 0.000000 0.000000 10.000000 
Rope1_Seg09 0.000000 0.000000 0.000000 0.000000 0.000000 0.000000 10.000000 
L_mid_hand01 0.000000 0.000000 0.000000 0.000000 0.000000 0.000000 10.000000 
L_mid_hand02 0.000000 0.000000 0.000000 0.000000 0.000000 0.000000 10.000000 
L_mid_hand03 0.000000 0.000000 0.000000 0.000000 0.000000 0.000000 10.000000 
null_rope02_connect 0.000000 0.000000 0.000000 0.000000 0.000000 0.000000 10.000000 
Rope2_Seg01 0.000000 0.000000 0.000000 0.000000 0.000000 0.000000 10.000000 
Rope2_Seg02 0.000000 0.000000 0.000000 0.000000 0.000000 0.000000 10.000000 
Rope2_Seg03 0.000000 0.000000 0.000000 0.000000 0.000000 0.000000 10.000000 
Rope2_Seg04 0.000000 0.000000 0.000000 0.000000 0.000000 0.000000 10.000000 
Rope2_Seg05 0.000000 0.000000 0.000000 0.000000 0.000000 0.000000 10.000000 
Rope2_Seg06 0.000000 0.000000 0.000000 0.000000 0.000000 0.000000 10.000000 
Rope2_Seg07 0.000000 0.000000 0.000000 0.000000 0.000000 0.000000 10.000000 
Rope2_Seg09 0.000000 0.000000 0.000000 0.000000 0.000000 0.000000 10.000000 
R_mid_hand01 0.000000 0.000000 0.000000 0.000000 0.000000 0.000000 10.000000 
R_mid_hand02 0.000000 0.000000 0.000000 0.000000 0.000000 0.000000 10.000000 
R_mid_hand03 0.000000 0.000000 0.000000 0.000000 0.000000 0.000000 10.000000 
spine02 0.000000 0.000000 0.000000 0.000000 0.000000 0.000000 10.000000 
spine03 0.000000 0.000000 0.000000 0.000000 0.000000 0.000000 10.000000 
pelvis 0.000000 0.000000 0.000000 0.000000 0.000000 0.000000 10.000000 
null_rope03_connect 0.000000 0.000000 0.000000 0.000000 0.000000 0.000000 10.000000 
null_rope04_connect 0.000000 0.000000 0.000000 0.000000 0.000000 0.000000 10.000000 
Rope3_Seg01 0.000000 0.000000 0.000000 0.000000 0.000000 0.000000 10.000000 
Rope3_Seg02 0.000000 0.000000 0.000000 0.000000 0.000000 0.000000 10.000000 
Rope3_Seg03 0.000000 0.000000 0.000000 0.000000 0.000000 0.000000 10.000000 
Rope3_Seg04 0.000000 0.000000 0.000000 0.000000 0.000000 0.000000 10.000000 
Rope3_Seg05 0.000000 0.000000 0.000000 0.000000 0.000000 0.000000 10.000000 
Rope3_Seg06 0.000000 0.000000 0.000000 0.000000 0.000000 0.000000 10.000000 
Rope3_Seg07 0.000000 0.000000 0.000000 0.000000 0.000000 0.000000 10.000000 
Rope3_Seg08 0.000000 0.000000 0.000000 0.000000 0.000000 0.000000 10.000000 
Rope3_Seg09 0.000000 0.000000 0.000000 0.000000 0.000000 0.000000 10.000000 
R_rear_hand01 0.000000 0.000000 0.000000 0.000000 0.000000 0.000000 10.000000 
R_rear_hand02 0.000000 0.000000 0.000000 0.000000 0.000000 0.000000 10.000000 
R_rear_hand03 0.000000 0.000000 0.000000 0.000000 0.000000 0.000000 10.000000 
Rope4_Seg01 0.000000 0.000000 0.000000 0.000000 0.000000 0.000000 10.000000 
Rope4_Seg02 0.000000 0.000000 0.000000 0.000000 0.000000 0.000000 10.000000 
Rope4_Seg03 0.000000 0.000000 0.000000 0.000000 0.000000 0.000000 10.000000 
Rope4_Seg04 0.000000 0.000000 0.000000 0.000000 0.000000 0.000000 10.000000 
Rope4_Seg05 0.000000 0.000000 0.000000 0.000000 0.000000 0.000000 10.000000 
Rope4_Seg06 0.000000 0.000000 0.000000 0.000000 0.000000 0.000000 10.000000 
Rope4_Seg07 0.000000 0.000000 0.000000 0.000000 0.000000 0.000000 10.000000 
Rope4_Seg08 0.000000 0.000000 0.000000 0.000000 0.000000 0.000000 10.000000 
Rope4_Seg09 0.000000 0.000000 0.000000 0.000000 0.000000 0.000000 10.000000 
L_rear_hand01 0.000000 0.000000 0.000000 0.000000 0.000000 0.000000 10.000000 
L_rear_hand02 0.000000 0.000000 0.000000 0.000000 0.000000 0.000000 10.000000 
L_rear_hand03 0.000000 0.000000 0.000000 0.000000 0.000000 0.000000 10.000000 
#Beginning of Data. Separated by tabs
#Fr	Tx	Ty	Tz	Rx	Ry	Rz	SF
[MASTER]
7 -0.000114 600.177795 0.000026 0.001660 0.001660 0.001660 600.177856
8 -0.000134 700.207581 0.000031 0.001660 0.001660 0.001660 700.207581
[root]
7 -14.136788 -6.628646 1407.657837 -91.727097 -11.582717 -89.471619 1407.744385
8 -18.773674 -3.692389 1407.504517 -91.726814 -11.582431 -89.471642 1407.634644
[chest]
7 -84.512650 -34.090519 0.000000 -2.165839 -0.134088 164.899811 91.129311
8 -84.512650 -34.090519 0.000000 -2.165816 -0.134465 164.879868 91.129311
[L_mid_tent01]
7 27.299091 22.179213 -249.918686 -19.615688 10.573393 16.375656 252.381683
8 27.299093 22.179205 -249.918686 -19.580675 8.908752 16.775772 252.381668
[R_mid_tent01]
7 23.228794 24.509907 226.238495 -166.967850 -11.860762 26.958435 228.744751
8 23.228794 24.509907 226.238495 -167.211975 -10.956968 27.366463 228.744751
[spine01]
7 -0.361383 -0.195265 0.000000 -0.000001 -0.000007 22.052340 0.410763
8 -0.361383 -0.195265 0.000000 -0.000001 -0.000007 22.052340 0.410763
[Bip01_Neck]
7 165.484543 71.581718 0.000119 176.643677 -1.657967 43.431911 180.302734
8 165.484543 71.581718 0.000119 176.643677 -1.657967 43.431911 180.302734
[L_humerus]
7 -13.983130 -135.272980 -120.471481 -7.747355 80.582367 77.788834 181.680161
8 -13.983130 -135.272980 -120.471481 -7.149048 80.653404 77.695396 181.680161
[R_humerus]
7 -13.983309 -135.273102 125.287651 46.851650 -77.264542 48.049908 184.909012
8 -13.983309 -135.273102 125.287651 46.241058 -77.135925 48.676281 184.909012
[weapon_bone]
7 235.964890 -300.705902 0.000000 0.000000 -89.951546 -128.212341 382.234833
8 235.964890 -300.705902 0.000000 0.000000 -89.951546 -128.212341 382.234833
[Bip01_Head]
7 213.517685 185.511246 14.415340 4.982295 8.427112 -43.807419 283.217285
8 213.588867 185.312576 16.978910 4.976888 6.734808 -43.852257 283.282959
[eye_left_bone]
7 -24.626970 125.451866 -64.772606 0.000000 -90.000000 -99.840431 143.318359
8 -24.626970 125.451866 -64.772606 0.000000 -90.000000 -99.840431 143.318359
[eye_right_bone]
7 -24.626970 125.451866 64.327362 0.000000 -89.965736 80.156380 143.117676
8 -24.626970 125.451866 64.327362 0.000000 -89.965736 80.156380 143.117676
[L_forearm]
7 322.776093 0.000000 -0.000119 0.000396 -0.002314 -109.419975 322.776093
8 322.776093 0.000000 -0.000119 0.000396 -0.002314 -109.419975 322.776093
[L_front_hand]
7 241.149185 -0.042021 -3.300071 -178.667953 -1.835447 -27.422350 241.171753
8 241.149185 -0.042021 -3.300071 -178.667953 -1.835447 -27.422342 241.171753
[L_weapon_bone]
7 156.183838 0.000000 0.000000 0.000014 0.000007 0.000001 156.183838
8 156.183838 0.000000 0.000000 0.000014 0.000007 0.000001 156.183838
[L_front_hand01_01]
7 86.095154 20.947098 -0.655860 -0.335131 -0.500211 71.723785 88.609184
8 86.095154 20.947098 -0.655860 -0.320921 -0.506953 70.185371 88.609184
[L_front_hand02_01]
7 86.935165 -11.437475 24.513514 149.028946 -58.148323 -55.100948 91.046425
8 86.935165 -11.437475 24.513514 146.961243 -57.333778 -52.657810 91.046425
[L_front_hand03_01]
7 86.637497 -14.123976 -20.424902 -148.918808 56.366669 -56.764694 90.126129
8 86.637497 -14.123976 -20.424902 -146.985443 55.548409 -54.432819 90.126129
[L_front_hand01_02]
7 71.020905 -0.000179 0.000030 0.000317 -0.002326 -105.537254 71.020905
8 71.020905 -0.000179 0.000030 0.000317 -0.002326 -105.513657 71.020905
[L_front_hand02_02]
7 71.020927 -0.000119 0.000060 0.000317 -0.002326 -105.537254 71.020927
8 71.020927 -0.000119 0.000060 0.000317 -0.002326 -105.513657 71.020927
[L_front_hand03_02]
7 71.020905 -0.000060 0.000060 0.000317 -0.002326 -105.537254 71.020905
8 71.020905 -0.000060 0.000060 0.000317 -0.002326 -105.513657 71.020905
[R_forearm]
7 322.776428 -0.000060 0.000030 0.202103 0.065158 -108.062805 322.776428
8 322.776428 -0.000060 0.000030 0.202103 0.065158 -108.062805 322.776428
[R_front_hand]
7 238.847015 -0.006795 2.210259 -2.635298 -10.645461 -26.312506 238.857239
8 238.847015 -0.006795 2.210259 -2.635298 -10.645461 -26.312506 238.857239
[R_weapon_bone]
7 155.664093 0.002503 -0.000030 0.003487 0.001180 -90.988930 155.664078
8 155.664093 0.002503 -0.000030 0.003487 0.001180 -90.988930 155.664078
[R_front_hand01_01]
7 87.624611 14.231146 22.918642 -149.707169 -58.394512 56.007454 91.683487
8 87.624611 14.231146 22.918642 -147.670532 -57.619129 53.605923 91.683487
[R_front_hand02_01]
7 89.356956 14.367283 -19.491137 149.983459 56.758793 58.275940 92.579636
8 89.356956 14.367283 -19.491137 148.052353 55.989693 55.954597 92.579636
[R_front_hand03_01]
7 87.286232 -22.307278 -0.143439 0.134949 -0.432464 -72.452232 90.091743
8 87.286232 -22.307278 -0.143439 0.125269 -0.437058 -70.957245 90.091743
[R_front_hand01_02]
7 71.020905 0.000060 0.000119 0.002323 -0.000334 106.381714 71.020905
8 71.020905 0.000060 0.000119 0.002323 -0.000334 106.381714 71.020905
[R_front_hand02_02]
7 71.020844 -0.000030 -0.000119 0.002323 -0.000334 106.381714 71.020836
8 71.020844 -0.000030 -0.000119 0.002323 -0.000334 106.381714 71.020836
[R_front_hand03_02]
7 71.020905 0.000000 0.000030 0.002323 -0.000334 106.381714 71.020905
8 71.020905 0.000000 0.000030 0.002323 -0.000334 106.381714 71.020905
[null_rope01_connect]
7 328.732483 0.000000 -0.000238 -159.394318 -66.299110 -117.069389 328.732483
8 328.732483 0.000000 -0.000238 -163.310593 -66.992035 -113.287491 328.732483
[Rope1_Seg01]
7 -0.000011 0.000027 0.000046 99.494644 -6.917869 -94.800804 0.000054
8 -0.000013 0.000025 0.000053 99.634453 -7.774254 -95.872475 0.000060
[Rope1_Seg02]
7 139.999863 -0.000179 0.000000 -5.875868 -1.870043 -3.260866 139.999863
8 139.999863 -0.000179 0.000000 -6.117736 -1.577986 -3.594873 139.999863
[Rope1_Seg03]
7 139.999924 0.000060 -0.000060 -8.325783 -4.188399 -2.899265 139.999924
8 139.999924 0.000060 -0.000060 -9.157075 -4.282659 -3.344818 139.999924
[Rope1_Seg04]
7 139.999924 -0.000060 -0.000119 -3.390636 0.083402 -3.425233 139.999924
8 139.999924 -0.000060 -0.000119 -3.343914 0.451051 -3.767581 139.999924
[Rope1_Seg05]
7 139.999832 0.000119 -0.000060 8.286150 9.677679 -0.549697 139.999832
8 139.999832 0.000119 -0.000060 10.295531 11.407058 0.164389 139.999832
[Rope1_Seg06]
7 139.999954 0.000119 -0.000060 2.614386 4.132751 -0.839587 139.999954
8 139.999954 0.000119 -0.000060 3.043833 4.773192 -0.772672 139.999954
[Rope1_Seg07]
7 139.999985 0.000060 0.000000 0.956057 1.876485 -0.620788 139.999985
8 139.999985 0.000060 0.000000 1.083354 2.124531 -0.621333 139.999985
[Rope1_Seg09]
7 121.602913 0.000119 -0.000089 -89.793175 -1.359789 0.847147 121.602913
8 121.602913 0.000119 -0.000089 -89.793175 -1.359789 0.847147 121.602913
[L_mid_hand01]
7 103.859421 1.038730 8.195221 110.549706 -45.072773 -15.392938 104.187431
8 103.859421 1.038730 8.195221 109.437721 -41.837845 -13.776228 104.187431
[L_mid_hand02]
7 105.572853 -4.139662 -10.864139 -149.303925 33.991974 -42.687023 106.211075
8 105.572853 -4.139662 -10.864139 -147.395187 32.186741 -39.191986 106.211075
[L_mid_hand03]
7 104.641464 17.579376 -3.913581 -13.209491 13.449579 48.630810 106.179977
8 104.641464 17.579376 -3.913581 -13.988547 12.638442 45.197113 106.179977
[null_rope02_connect]
7 328.732849 0.000179 -0.000119 -150.641983 73.866615 -43.775730 328.732849
8 328.732849 0.000179 -0.000119 -152.718338 74.672943 -45.585209 328.732849
[Rope2_Seg01]
7 0.000095 0.000153 0.000023 -20.249054 -0.550632 -61.598240 0.000181
8 0.000095 0.000153 0.000027 -24.882217 -2.599735 -62.709072 0.000182
[Rope2_Seg02]
7 139.999741 -0.000060 -0.000119 0.767331 7.042868 -2.537924 139.999756
8 139.999741 -0.000060 -0.000119 1.453175 7.615659 -2.325778 139.999756
[Rope2_Seg03]
7 140.000107 0.000030 0.000000 7.997610 5.915605 3.786842 140.000107
8 140.000107 0.000030 0.000000 6.673644 6.075559 2.712884 140.000107
[Rope2_Seg04]
7 139.999802 0.000000 -0.000060 -7.245917 0.154746 -6.826098 139.999802
8 139.999802 0.000000 -0.000060 -5.468123 1.206451 -5.703054 139.999802
[Rope2_Seg05]
7 139.999985 -0.000060 0.000119 -14.832954 -2.740619 -15.446227 139.999985
8 139.999985 -0.000060 0.000119 -11.764444 -1.718221 -12.326856 139.999985
[Rope2_Seg06]
7 139.999893 -0.000030 -0.000119 -6.240895 1.000180 -8.545495 139.999893
8 139.999893 -0.000030 -0.000119 -5.233204 0.758677 -6.869379 139.999893
[Rope2_Seg07]
7 139.999893 0.000060 -0.000060 -2.915952 1.221584 -4.790364 139.999893
8 139.999893 0.000060 -0.000060 -2.615155 0.954928 -3.993489 139.999893
[Rope2_Seg09]
7 121.338966 0.000089 -0.000060 33.793236 -1.359788 -0.847141 121.338966
8 121.338966 0.000089 -0.000060 33.793236 -1.359788 -0.847141 121.338966
[R_mid_hand01]
7 104.680779 11.144459 -10.335981 -28.447895 39.731529 52.443096 105.778534
8 104.680779 11.144459 -10.335981 -30.935734 37.970642 48.479172 105.778534
[R_mid_hand02]
7 104.070427 2.443552 8.231699 63.907383 -55.672989 22.555904 104.424065
8 104.070427 2.443552 8.231699 65.980988 -52.455704 19.994473 104.424065
[R_mid_hand03]
7 106.028137 -11.221827 -5.996406 -173.262527 14.339042 -61.789948 106.788818
8 106.028137 -11.221827 -5.996406 -172.374313 13.894678 -58.153652 106.788818
[spine02]
7 129.756927 0.001550 0.000119 0.360061 -4.044797 -12.915058 129.756927
8 129.756927 0.001550 0.000119 0.360061 -4.044797 -12.915058 129.756927
[spine03]
7 78.614052 0.081741 -4.899002 1.896495 3.831288 16.473045 78.766586
8 78.614044 0.081741 -4.899001 1.896495 3.831288 16.473045 78.766579
[pelvis]
7 169.435242 0.051022 0.000000 -0.060465 -0.180225 14.087930 169.435257
8 169.435242 0.051022 0.000000 -0.060465 -0.180225 14.087930 169.435257
[null_rope03_connect]
7 -1.257226 -2.466202 137.391083 156.118790 -89.383247 -94.220016 137.418976
8 -1.257226 -2.466202 137.391083 156.083572 -89.383247 -94.184242 137.418976
[null_rope04_connect]
7 -1.259640 -2.480268 -137.844437 156.118790 -89.383247 -94.220016 137.872513
8 -1.259640 -2.480268 -137.844437 156.083572 -89.383247 -94.184242 137.872513
[Rope3_Seg01]
7 -0.000022 -0.000046 0.000000 18.719454 19.112720 -74.818558 0.000051
8 -0.000022 -0.000053 0.000000 17.499609 19.283306 -78.909286 0.000058
[Rope3_Seg02]
7 139.999924 -0.000119 0.000060 0.500653 2.411017 -5.228323 139.999924
8 139.999924 -0.000119 0.000060 0.214432 2.404530 -4.011446 139.999924
[Rope3_Seg03]
7 139.999924 -0.000119 0.000119 0.245822 2.511536 -4.669054 139.999924
8 139.999924 -0.000119 0.000119 0.075099 2.508047 -3.653049 139.999924
[Rope3_Seg04]
7 139.999924 0.000119 0.000000 -0.021360 3.500642 -4.478064 139.999924
8 139.999924 0.000119 0.000000 -0.121306 3.125453 -3.599089 139.999924
[Rope3_Seg05]
7 139.999924 -0.000238 0.000060 0.159017 -1.222032 -2.230813 139.999924
8 139.999924 -0.000238 0.000060 0.157055 -1.045116 -1.310460 139.999924
[Rope3_Seg06]
7 139.999893 -0.000119 -0.000060 0.694106 -5.076081 -0.543976 139.999893
8 139.999893 -0.000119 -0.000060 0.605405 -3.858315 0.293028 139.999893
[Rope3_Seg07]
7 139.999771 0.000060 -0.000119 0.814821 -3.479594 -0.869223 139.999771
8 139.999771 0.000060 -0.000119 0.664264 -2.252374 -0.238946 139.999771
[Rope3_Seg08]
7 139.999985 -0.000060 0.000000 0.773346 -2.248719 -0.755537 139.999985
8 139.999985 -0.000060 0.000000 0.657671 -1.465871 -0.244167 139.999985
[Rope3_Seg09]
7 90.185997 -0.000179 -0.000060 89.793228 -1.359877 -0.847183 90.185997
8 90.185997 -0.000179 -0.000060 89.793228 -1.359877 -0.847183 90.185997
[R_rear_hand01]
7 103.366196 -6.073594 -10.757982 -169.896027 22.621880 -54.548431 104.101845
8 103.366196 -6.073594 -10.757982 -168.239929 21.836601 -50.169044 104.101845
[R_rear_hand02]
7 100.509819 12.039542 -7.992327 -24.381289 31.099262 51.752331 101.543350
8 100.509819 12.039542 -7.992327 -26.552095 29.320543 47.442066 101.543350
[R_rear_hand03]
7 101.539970 5.215704 5.435467 80.187729 -54.464619 11.876325 101.819031
8 101.539970 5.215704 5.435467 81.061974 -50.389538 10.772509 101.819031
[Rope4_Seg01]
7 -0.000016 -0.000053 -0.000153 -97.202316 20.470743 -95.056664 0.000162
8 -0.000016 -0.000050 -0.000153 -97.758698 20.036074 -96.721497 0.000161
[Rope4_Seg02]
7 139.999985 0.000060 0.000119 0.073488 -1.882825 0.143899 139.999985
8 139.999985 0.000060 0.000119 0.050962 -1.872985 0.312449 139.999985
[Rope4_Seg03]
7 139.999924 0.000000 -0.000238 0.132400 -2.901456 -0.278739 139.999924
8 139.999924 0.000000 -0.000238 0.098145 -2.372540 0.118349 139.999924
[Rope4_Seg04]
7 139.999985 0.000000 0.000119 0.337845 -6.589951 -1.880537 139.999985
8 139.999985 0.000000 0.000119 0.201140 -4.370063 -0.817701 139.999985
[Rope4_Seg05]
7 139.999802 -0.000060 -0.000119 0.650988 8.073031 5.399298 139.999802
8 139.999802 -0.000060 -0.000119 0.351545 2.223263 3.239061 139.999802
[Rope4_Seg06]
7 139.999924 0.000000 0.000060 0.379889 7.733809 4.345908 139.999924
8 139.999924 0.000000 0.000060 0.234186 3.271446 2.769433 139.999924
[Rope4_Seg07]
7 139.999802 0.000000 0.000000 0.126385 2.750160 1.691718 139.999802
8 139.999802 0.000000 0.000000 0.140928 1.053733 1.160318 139.999802
[Rope4_Seg08]
7 139.999924 0.000000 0.000119 -1.478255 1.612134 0.989979 139.999924
8 139.999924 0.000000 0.000119 -1.458501 0.633741 0.695951 139.999924
[Rope4_Seg09]
7 90.185791 0.000060 0.000060 -135.617828 2.228885 0.850567 90.185791
8 90.185791 0.000060 0.000060 -135.617828 2.228885 0.850567 90.185791
[L_rear_hand01]
7 101.696655 -8.392275 -7.654577 -31.684452 -23.583008 144.025742 102.329041
8 101.696655 -8.392275 -7.654577 -31.429779 -23.932976 143.406311 102.329041
[L_rear_hand02]
7 102.726799 -1.568258 5.773216 82.701553 38.753956 171.553619 102.900848
8 102.726799 -1.568258 5.773216 82.628304 39.414528 171.441589 102.900848
[L_rear_hand03]
7 104.552910 9.721220 -10.420293 -163.975403 -19.004421 -142.009338 105.519653
8 104.552910 9.721220 -10.420293 -164.198181 -19.188400 -141.332703 105.519653
